<?xml version="1.0" encoding="iso-8859-1"?>
<!-- Uploaded to: SVG Repo, www.svgrepo.com, Generator: SVG Repo Mixer Tools -->
<svg height="800px" width="800px" version="1.1" id="Layer_1" xmlns="http://www.w3.org/2000/svg" xmlns:xlink="http://www.w3.org/1999/xlink" 
	 viewBox="0 0 512 512" xml:space="preserve">
<g>
	<path style="fill:#7383BF;" d="M25.6,494.933c-5.12,0-8.533-3.413-8.533-8.533V8.533C17.067,3.413,20.48,0,25.6,0
		s8.533,3.413,8.533,8.533V486.4C34.133,491.52,30.72,494.933,25.6,494.933"/>
	<path style="fill:#7383BF;" d="M503.467,494.933H25.6c-5.12,0-8.533-3.413-8.533-8.533s3.413-8.533,8.533-8.533h477.867
		c5.12,0,8.533,3.413,8.533,8.533S508.587,494.933,503.467,494.933"/>
	<path style="fill:#7383BF;" d="M42.667,42.667H8.533C3.413,42.667,0,39.253,0,34.133S3.413,25.6,8.533,25.6h34.133
		c5.12,0,8.533,3.413,8.533,8.533S47.787,42.667,42.667,42.667"/>
	<path style="fill:#7383BF;" d="M42.667,85.333H8.533C3.413,85.333,0,81.92,0,76.8s3.413-8.533,8.533-8.533h34.133
		c5.12,0,8.533,3.413,8.533,8.533S47.787,85.333,42.667,85.333"/>
	<path style="fill:#7383BF;" d="M42.667,128H8.533C3.413,128,0,124.587,0,119.467s3.413-8.533,8.533-8.533h34.133
		c5.12,0,8.533,3.413,8.533,8.533S47.787,128,42.667,128"/>
	<path style="fill:#7383BF;" d="M42.667,170.667H8.533c-5.12,0-8.533-3.413-8.533-8.533c0-5.12,3.413-8.533,8.533-8.533h34.133
		c5.12,0,8.533,3.413,8.533,8.533C51.2,167.253,47.787,170.667,42.667,170.667"/>
	<path style="fill:#7383BF;" d="M42.667,213.333H8.533C3.413,213.333,0,209.92,0,204.8c0-5.12,3.413-8.533,8.533-8.533h34.133
		c5.12,0,8.533,3.413,8.533,8.533C51.2,209.92,47.787,213.333,42.667,213.333"/>
	<path style="fill:#7383BF;" d="M42.667,256H8.533C3.413,256,0,252.587,0,247.467c0-5.12,3.413-8.533,8.533-8.533h34.133
		c5.12,0,8.533,3.413,8.533,8.533C51.2,252.587,47.787,256,42.667,256"/>
	<path style="fill:#7383BF;" d="M42.667,298.667H8.533c-5.12,0-8.533-3.413-8.533-8.533c0-5.12,3.413-8.533,8.533-8.533h34.133
		c5.12,0,8.533,3.413,8.533,8.533C51.2,295.253,47.787,298.667,42.667,298.667"/>
	<path style="fill:#7383BF;" d="M42.667,341.333H8.533C3.413,341.333,0,337.92,0,332.8s3.413-8.533,8.533-8.533h34.133
		c5.12,0,8.533,3.413,8.533,8.533S47.787,341.333,42.667,341.333"/>
	<path style="fill:#7383BF;" d="M42.667,384H8.533C3.413,384,0,380.587,0,375.467c0-5.12,3.413-8.533,8.533-8.533h34.133
		c5.12,0,8.533,3.413,8.533,8.533C51.2,380.587,47.787,384,42.667,384"/>
	<path style="fill:#7383BF;" d="M42.667,426.667H8.533c-5.12,0-8.533-3.413-8.533-8.533s3.413-8.533,8.533-8.533h34.133
		c5.12,0,8.533,3.413,8.533,8.533S47.787,426.667,42.667,426.667"/>
	<path style="fill:#7383BF;" d="M25.6,469.333H8.533C3.413,469.333,0,465.92,0,460.8s3.413-8.533,8.533-8.533H25.6
		c5.12,0,8.533,3.413,8.533,8.533S30.72,469.333,25.6,469.333"/>
	<path style="fill:#7383BF;" d="M59.733,512c-5.12,0-8.533-3.413-8.533-8.533v-34.133c0-5.12,3.413-8.533,8.533-8.533
		s8.533,3.413,8.533,8.533v34.133C68.267,508.587,64.853,512,59.733,512"/>
	<path style="fill:#7383BF;" d="M102.4,512c-5.12,0-8.533-3.413-8.533-8.533v-34.133c0-5.12,3.413-8.533,8.533-8.533
		c5.12,0,8.533,3.413,8.533,8.533v34.133C110.933,508.587,107.52,512,102.4,512"/>
	<path style="fill:#7383BF;" d="M145.067,512c-5.12,0-8.533-3.413-8.533-8.533v-34.133c0-5.12,3.413-8.533,8.533-8.533
		c5.12,0,8.533,3.413,8.533,8.533v34.133C153.6,508.587,150.187,512,145.067,512"/>
	<path style="fill:#7383BF;" d="M187.733,512c-5.12,0-8.533-3.413-8.533-8.533v-34.133c0-5.12,3.413-8.533,8.533-8.533
		c5.12,0,8.533,3.413,8.533,8.533v34.133C196.267,508.587,192.853,512,187.733,512"/>
	<path style="fill:#7383BF;" d="M230.4,512c-5.12,0-8.533-3.413-8.533-8.533v-34.133c0-5.12,3.413-8.533,8.533-8.533
		c5.12,0,8.533,3.413,8.533,8.533v34.133C238.933,508.587,235.52,512,230.4,512"/>
	<path style="fill:#7383BF;" d="M273.067,512c-5.12,0-8.533-3.413-8.533-8.533v-34.133c0-5.12,3.413-8.533,8.533-8.533
		s8.533,3.413,8.533,8.533v34.133C281.6,508.587,278.187,512,273.067,512"/>
	<path style="fill:#7383BF;" d="M315.733,512c-5.12,0-8.533-3.413-8.533-8.533v-34.133c0-5.12,3.413-8.533,8.533-8.533
		c5.12,0,8.533,3.413,8.533,8.533v34.133C324.267,508.587,320.853,512,315.733,512"/>
	<path style="fill:#7383BF;" d="M358.4,512c-5.12,0-8.533-3.413-8.533-8.533v-34.133c0-5.12,3.413-8.533,8.533-8.533
		s8.533,3.413,8.533,8.533v34.133C366.933,508.587,363.52,512,358.4,512"/>
	<path style="fill:#7383BF;" d="M401.067,512c-5.12,0-8.533-3.413-8.533-8.533v-34.133c0-5.12,3.413-8.533,8.533-8.533
		s8.533,3.413,8.533,8.533v34.133C409.6,508.587,406.187,512,401.067,512"/>
	<path style="fill:#7383BF;" d="M443.733,512c-5.12,0-8.533-3.413-8.533-8.533v-34.133c0-5.12,3.413-8.533,8.533-8.533
		c5.12,0,8.533,3.413,8.533,8.533v34.133C452.267,508.587,448.853,512,443.733,512"/>
	<path style="fill:#7383BF;" d="M486.4,512c-5.12,0-8.533-3.413-8.533-8.533v-34.133c0-5.12,3.413-8.533,8.533-8.533
		s8.533,3.413,8.533,8.533v34.133C494.933,508.587,491.52,512,486.4,512"/>
</g>
<path style="fill:#DD342E;" d="M85.333,102.4V34.133H266.24c3.413,0,6.827,3.413,6.827,6.827v54.613
	c0,3.413-3.413,6.827-6.827,6.827C266.24,102.4,85.333,102.4,85.333,102.4z"/>
<path style="fill:#ECBA16;" d="M85.333,213.333v-68.267H419.84c3.413,0,6.827,3.413,6.827,6.827v54.613
	c0,3.413-3.413,6.827-6.827,6.827C419.84,213.333,85.333,213.333,85.333,213.333z"/>
<path style="fill:#42B05C;" d="M85.333,324.267V256h266.24c3.413,0,6.827,3.413,6.827,6.827v54.613c0,3.413-3.413,6.827-6.827,6.827
	H85.333z"/>
<g>
	<path style="fill:#DD342E;" d="M85.333,435.2v-68.267h394.24c3.413,0,6.827,3.413,6.827,6.827v54.613
		c0,3.413-3.413,6.827-6.827,6.827H85.333z"/>
	<path style="fill:#DD342E;" d="M503.467,34.133H460.8c-5.12,0-8.533-3.413-8.533-8.533s3.413-8.533,8.533-8.533h42.667
		c5.12,0,8.533,3.413,8.533,8.533S508.587,34.133,503.467,34.133"/>
</g>
<path style="fill:#ECBA16;" d="M426.667,34.133h-8.533c-5.12,0-8.533-3.413-8.533-8.533s3.413-8.533,8.533-8.533h8.533
	c5.12,0,8.533,3.413,8.533,8.533S431.787,34.133,426.667,34.133"/>
<path style="fill:#42B05C;" d="M452.267,68.267h-34.133c-5.12,0-8.533-3.413-8.533-8.533s3.413-8.533,8.533-8.533h34.133
	c5.12,0,8.533,3.413,8.533,8.533S457.387,68.267,452.267,68.267"/>
<path style="fill:#7383BF;" d="M503.467,68.267H486.4c-5.12,0-8.533-3.413-8.533-8.533S481.28,51.2,486.4,51.2h17.067
	c5.12,0,8.533,3.413,8.533,8.533S508.587,68.267,503.467,68.267"/>
</svg>