<?xml version="1.0" encoding="iso-8859-1"?>
<!-- Uploaded to: SVG Repo, www.svgrepo.com, Generator: SVG Repo Mixer Tools -->
<svg height="800px" width="800px" version="1.1" id="Layer_1" xmlns="http://www.w3.org/2000/svg" xmlns:xlink="http://www.w3.org/1999/xlink" 
	 viewBox="0 0 511.448 511.448" xml:space="preserve">
<g>
	<path style="fill:#FFFFFF;" d="M494.878,220.375v70.697c0,5.181-4.209,9.389-9.389,9.389H25.959c-5.181,0-9.389-4.209-9.389-9.389
		v-70.697c0-5.181,4.209-9.389,9.389-9.389h459.53C490.669,210.986,494.878,215.195,494.878,220.375z M314.601,243.904
		c3.237-3.237,3.237-8.473,0-11.709c-3.237-3.237-8.473-3.237-11.709,0l-11.82,11.809l-11.82-11.809
		c-3.237-3.237-8.473-3.237-11.709,0c-3.237,3.237-3.237,8.473,0,11.709l11.809,11.82l-11.809,11.82
		c-3.237,3.237-3.237,8.473,0,11.709c1.613,1.624,3.734,2.43,5.855,2.43s4.242-0.806,5.855-2.43l11.82-11.809l11.82,11.809
		c1.613,1.624,3.734,2.43,5.855,2.43s4.242-0.806,5.855-2.43c3.237-3.237,3.237-8.473,0-11.709l-11.809-11.82L314.601,243.904z
		 M243.904,243.904c3.237-3.237,3.237-8.473,0-11.709c-3.237-3.237-8.473-3.237-11.709,0l-11.82,11.809l-11.82-11.809
		c-3.237-3.237-8.473-3.237-11.709,0c-3.237,3.237-3.237,8.473,0,11.709l11.809,11.82l-11.809,11.82
		c-3.237,3.237-3.237,8.473,0,11.709c1.613,1.624,3.734,2.43,5.855,2.43c2.121,0,4.242-0.806,5.855-2.43l11.82-11.809l11.82,11.809
		c1.613,1.624,3.734,2.43,5.855,2.43c2.121,0,4.242-0.806,5.855-2.43c3.237-3.237,3.237-8.473,0-11.709l-11.809-11.82
		L243.904,243.904z M173.207,243.904c3.237-3.237,3.237-8.473,0-11.709c-3.237-3.237-8.473-3.237-11.709,0l-11.82,11.809
		l-11.82-11.809c-3.237-3.237-8.473-3.237-11.709,0c-3.237,3.237-3.237,8.473,0,11.709l11.809,11.82l-11.809,11.82
		c-3.237,3.237-3.237,8.473,0,11.709c1.613,1.624,3.734,2.43,5.855,2.43s4.242-0.806,5.855-2.43l11.82-11.809l11.82,11.809
		c1.613,1.624,3.734,2.43,5.855,2.43c2.121,0,4.242-0.806,5.855-2.43c3.237-3.237,3.237-8.473,0-11.709l-11.809-11.82
		L173.207,243.904z M102.51,243.904c3.237-3.237,3.237-8.473,0-11.709c-3.237-3.237-8.473-3.237-11.709,0l-11.82,11.809
		l-11.82-11.809c-3.237-3.237-8.473-3.237-11.709,0s-3.237,8.473,0,11.709l11.809,11.82l-11.809,11.82
		c-3.237,3.237-3.237,8.473,0,11.709c1.613,1.624,3.734,2.43,5.855,2.43s4.242-0.806,5.855-2.43l11.82-11.809l11.82,11.809
		c1.613,1.624,3.734,2.43,5.855,2.43c2.121,0,4.242-0.806,5.855-2.43c3.237-3.237,3.237-8.473,0-11.709l-11.809-11.82
		L102.51,243.904z"/>
	<path style="fill:#FFFFFF;" d="M494.878,78.982v70.697c0,5.181-4.209,9.389-9.389,9.389H25.959c-5.181,0-9.389-4.209-9.389-9.389
		V78.982c0-5.181,4.209-9.389,9.389-9.389h459.53C490.669,69.592,494.878,73.801,494.878,78.982z M455.995,102.51
		c3.237-3.237,3.237-8.473,0-11.709c-3.237-3.237-8.473-3.237-11.709,0l-11.82,11.809l-11.82-11.809
		c-3.237-3.237-8.473-3.237-11.709,0c-3.237,3.237-3.237,8.473,0,11.709l11.809,11.82l-11.809,11.82
		c-3.237,3.237-3.237,8.473,0,11.709c1.613,1.624,3.734,2.43,5.855,2.43c2.121,0,4.242-0.806,5.855-2.43l11.82-11.809l11.82,11.809
		c1.613,1.624,3.734,2.43,5.855,2.43s4.242-0.806,5.855-2.43c3.237-3.237,3.237-8.473,0-11.709l-11.809-11.82L455.995,102.51z
		 M385.298,102.51c3.237-3.237,3.237-8.473,0-11.709c-3.237-3.237-8.473-3.237-11.709,0l-11.82,11.809l-11.82-11.809
		c-3.237-3.237-8.473-3.237-11.709,0c-3.237,3.237-3.237,8.473,0,11.709l11.809,11.82l-11.809,11.82
		c-3.237,3.237-3.237,8.473,0,11.709c1.613,1.624,3.734,2.43,5.855,2.43c2.121,0,4.242-0.806,5.855-2.43l11.82-11.809l11.82,11.809
		c1.613,1.624,3.734,2.43,5.855,2.43s4.242-0.806,5.855-2.43c3.237-3.237,3.237-8.473,0-11.709l-11.809-11.82L385.298,102.51z
		 M314.601,102.51c3.237-3.237,3.237-8.473,0-11.709c-3.237-3.237-8.473-3.237-11.709,0l-11.82,11.809l-11.82-11.809
		c-3.237-3.237-8.473-3.237-11.709,0c-3.237,3.237-3.237,8.473,0,11.709l11.809,11.82l-11.809,11.82
		c-3.237,3.237-3.237,8.473,0,11.709c1.613,1.624,3.734,2.43,5.855,2.43s4.242-0.806,5.855-2.43l11.82-11.809l11.82,11.809
		c1.613,1.624,3.734,2.43,5.855,2.43s4.242-0.806,5.855-2.43c3.237-3.237,3.237-8.473,0-11.709l-11.809-11.82L314.601,102.51z
		 M243.904,102.51c3.237-3.237,3.237-8.473,0-11.709c-3.237-3.237-8.473-3.237-11.709,0l-11.82,11.809l-11.82-11.809
		c-3.237-3.237-8.473-3.237-11.709,0c-3.237,3.237-3.237,8.473,0,11.709l11.809,11.82l-11.809,11.82
		c-3.237,3.237-3.237,8.473,0,11.709c1.613,1.624,3.734,2.43,5.855,2.43c2.121,0,4.242-0.806,5.855-2.43l11.82-11.809l11.82,11.809
		c1.613,1.624,3.734,2.43,5.855,2.43c2.121,0,4.242-0.806,5.855-2.43c3.237-3.237,3.237-8.473,0-11.709l-11.809-11.82
		L243.904,102.51z M173.207,102.51c3.237-3.237,3.237-8.473,0-11.709c-3.237-3.237-8.473-3.237-11.709,0l-11.82,11.809
		l-11.82-11.809c-3.237-3.237-8.473-3.237-11.709,0c-3.237,3.237-3.237,8.473,0,11.709l11.809,11.82l-11.809,11.82
		c-3.237,3.237-3.237,8.473,0,11.709c1.613,1.624,3.734,2.43,5.855,2.43s4.242-0.806,5.855-2.43l11.82-11.809l11.82,11.809
		c1.613,1.624,3.734,2.43,5.855,2.43c2.121,0,4.242-0.806,5.855-2.43c3.237-3.237,3.237-8.473,0-11.709l-11.809-11.82
		L173.207,102.51z M102.51,102.51c3.237-3.237,3.237-8.473,0-11.709c-3.237-3.237-8.473-3.237-11.709,0l-11.82,11.809l-11.82-11.809
		c-3.237-3.237-8.473-3.237-11.709,0c-3.237,3.237-3.237,8.473,0,11.709l11.809,11.82l-11.809,11.82
		c-3.237,3.237-3.237,8.473,0,11.709c1.613,1.624,3.734,2.43,5.855,2.43s4.242-0.806,5.855-2.43l11.82-11.809l11.82,11.809
		c1.613,1.624,3.734,2.43,5.855,2.43c2.121,0,4.242-0.806,5.855-2.43c3.237-3.237,3.237-8.473,0-11.709l-11.809-11.82L102.51,102.51
		z"/>
</g>
<g>
	<path style="fill:#C2E95D;" d="M388.28,387.728c5.181,0,9.389,4.209,9.389,9.389c0,5.181-4.209,9.389-9.389,9.389
		s-9.389-4.209-9.389-9.389C378.891,391.937,383.1,387.728,388.28,387.728z"/>
	<path style="fill:#C2E95D;" d="M494.878,361.769v70.697c0,5.181-4.209,9.389-9.389,9.389H344.095c-5.181,0-9.389-4.209-9.389-9.389
		v-70.697c0-5.181,4.209-9.389,9.389-9.389h141.394C490.669,352.38,494.878,356.588,494.878,361.769z M464.832,385.298
		c3.237-3.237,3.237-8.473,0-11.709c-3.237-3.237-8.473-3.237-11.709,0l-11.82,11.809l-0.552-0.552v-5.402
		c0-4.573-3.712-8.285-8.285-8.285s-8.285,3.712-8.285,8.285v35.348c0,4.573,3.712,8.285,8.285,8.285s8.285-3.712,8.285-8.285
		v-6.506l12.372,12.361c1.613,1.624,3.734,2.43,5.855,2.43c2.121,0,4.242-0.806,5.855-2.43c3.237-3.237,3.237-8.473,0-11.709
		l-11.809-11.82L464.832,385.298z M414.239,397.118c0-14.316-11.643-25.959-25.959-25.959s-25.959,11.643-25.959,25.959
		c0,14.316,11.643,25.959,25.959,25.959S414.239,411.434,414.239,397.118z"/>
</g>
<g>
	<path style="fill:#535757;" d="M511.448,361.769v70.697c0,14.316-11.643,25.959-25.959,25.959H344.095
		c-14.316,0-25.959-11.643-25.959-25.959v-70.697c0-14.316,11.643-25.959,25.959-25.959h141.394
		C499.805,335.81,511.448,347.453,511.448,361.769z M494.878,432.466v-70.697c0-5.181-4.209-9.389-9.389-9.389H344.095
		c-5.181,0-9.389,4.209-9.389,9.389v70.697c0,5.181,4.209,9.389,9.389,9.389h141.394
		C490.669,441.855,494.878,437.647,494.878,432.466z"/>
	<path style="fill:#535757;" d="M511.448,220.375v70.697c0,14.316-11.643,25.959-25.959,25.959H25.959
		C11.643,317.031,0,305.388,0,291.072v-70.697c0-14.316,11.643-25.959,25.959-25.959h459.53
		C499.805,194.416,511.448,206.059,511.448,220.375z M494.878,291.072v-70.697c0-5.181-4.209-9.389-9.389-9.389H25.959
		c-5.181,0-9.389,4.209-9.389,9.389v70.697c0,5.181,4.209,9.389,9.389,9.389h459.53
		C490.669,300.462,494.878,296.253,494.878,291.072z"/>
	<path style="fill:#535757;" d="M511.448,78.982v70.697c0,14.316-11.643,25.959-25.959,25.959H25.959
		C11.643,175.638,0,163.995,0,149.679V78.982c0-14.316,11.643-25.959,25.959-25.959h459.53
		C499.805,53.023,511.448,64.666,511.448,78.982z M494.878,149.679V78.982c0-5.181-4.209-9.389-9.389-9.389H25.959
		c-5.181,0-9.389,4.209-9.389,9.389v70.697c0,5.181,4.209,9.389,9.389,9.389h459.53
		C490.669,159.068,494.878,154.859,494.878,149.679z"/>
	<path style="fill:#535757;" d="M464.832,373.589c3.237,3.237,3.237,8.473,0,11.709l-11.809,11.82l11.809,11.82
		c3.237,3.237,3.237,8.473,0,11.709c-1.613,1.624-3.734,2.43-5.855,2.43c-2.121,0-4.242-0.806-5.855-2.43l-12.372-12.361v6.506
		c0,4.573-3.712,8.285-8.285,8.285s-8.285-3.712-8.285-8.285v-35.348c0-4.573,3.712-8.285,8.285-8.285s8.285,3.712,8.285,8.285
		v5.402l0.552,0.552l11.82-11.809C456.359,370.352,461.595,370.352,464.832,373.589z"/>
	<path style="fill:#535757;" d="M455.995,90.801c3.237,3.237,3.237,8.473,0,11.709l-11.809,11.82l11.809,11.82
		c3.237,3.237,3.237,8.473,0,11.709c-1.613,1.624-3.734,2.43-5.855,2.43c-2.121,0-4.242-0.806-5.855-2.43l-11.82-11.809
		l-11.82,11.809c-1.613,1.624-3.734,2.43-5.855,2.43c-2.121,0-4.242-0.806-5.855-2.43c-3.237-3.237-3.237-8.473,0-11.709
		l11.809-11.82l-11.809-11.82c-3.237-3.237-3.237-8.473,0-11.709c3.237-3.237,8.473-3.237,11.709,0l11.82,11.809l11.82-11.809
		C447.522,87.565,452.758,87.565,455.995,90.801z"/>
	<path style="fill:#535757;" d="M388.28,371.159c14.316,0,25.959,11.643,25.959,25.959c0,14.316-11.643,25.959-25.959,25.959
		s-25.959-11.643-25.959-25.959C362.321,382.801,373.964,371.159,388.28,371.159z M397.67,397.118c0-5.181-4.209-9.389-9.389-9.389
		s-9.389,4.209-9.389,9.389c0,5.181,4.209,9.389,9.389,9.389S397.67,402.298,397.67,397.118z"/>
	<path style="fill:#535757;" d="M385.298,90.801c3.237,3.237,3.237,8.473,0,11.709l-11.809,11.82l11.809,11.82
		c3.237,3.237,3.237,8.473,0,11.709c-1.613,1.624-3.734,2.43-5.855,2.43c-2.121,0-4.242-0.806-5.855-2.43l-11.82-11.809
		l-11.82,11.809c-1.613,1.624-3.734,2.43-5.855,2.43c-2.121,0-4.242-0.806-5.855-2.43c-3.237-3.237-3.237-8.473,0-11.709
		l11.809-11.82l-11.809-11.82c-3.237-3.237-3.237-8.473,0-11.709c3.237-3.237,8.473-3.237,11.709,0l11.82,11.809l11.82-11.809
		C376.825,87.565,382.061,87.565,385.298,90.801z"/>
	<path style="fill:#535757;" d="M314.601,90.801c3.237,3.237,3.237,8.473,0,11.709l-11.809,11.82l11.809,11.82
		c3.237,3.237,3.237,8.473,0,11.709c-1.613,1.624-3.734,2.43-5.855,2.43c-2.121,0-4.242-0.806-5.855-2.43l-11.82-11.809
		l-11.82,11.809c-1.613,1.624-3.734,2.43-5.855,2.43s-4.242-0.806-5.855-2.43c-3.237-3.237-3.237-8.473,0-11.709l11.809-11.82
		l-11.809-11.82c-3.237-3.237-3.237-8.473,0-11.709c3.237-3.237,8.473-3.237,11.709,0l11.82,11.809l11.82-11.809
		C306.128,87.565,311.364,87.565,314.601,90.801z"/>
	<path style="fill:#535757;" d="M314.601,232.195c3.237,3.237,3.237,8.473,0,11.709l-11.809,11.82l11.809,11.82
		c3.237,3.237,3.237,8.473,0,11.709c-1.613,1.624-3.734,2.43-5.855,2.43c-2.121,0-4.242-0.806-5.855-2.43l-11.82-11.809
		l-11.82,11.809c-1.613,1.624-3.734,2.43-5.855,2.43s-4.242-0.806-5.855-2.43c-3.237-3.237-3.237-8.473,0-11.709l11.809-11.82
		l-11.809-11.82c-3.237-3.237-3.237-8.473,0-11.709c3.237-3.237,8.473-3.237,11.709,0l11.82,11.809l11.82-11.809
		C306.128,228.958,311.364,228.958,314.601,232.195z"/>
	<path style="fill:#535757;" d="M243.904,90.801c3.237,3.237,3.237,8.473,0,11.709l-11.809,11.82l11.809,11.82
		c3.237,3.237,3.237,8.473,0,11.709c-1.613,1.624-3.734,2.43-5.855,2.43c-2.121,0-4.242-0.806-5.855-2.43l-11.82-11.809
		l-11.82,11.809c-1.613,1.624-3.734,2.43-5.855,2.43c-2.121,0-4.242-0.806-5.855-2.43c-3.237-3.237-3.237-8.473,0-11.709
		l11.809-11.82l-11.809-11.82c-3.237-3.237-3.237-8.473,0-11.709c3.237-3.237,8.473-3.237,11.709,0l11.82,11.809l11.82-11.809
		C235.432,87.565,240.668,87.565,243.904,90.801z"/>
	<path style="fill:#535757;" d="M243.904,232.195c3.237,3.237,3.237,8.473,0,11.709l-11.809,11.82l11.809,11.82
		c3.237,3.237,3.237,8.473,0,11.709c-1.613,1.624-3.734,2.43-5.855,2.43c-2.121,0-4.242-0.806-5.855-2.43l-11.82-11.809
		l-11.82,11.809c-1.613,1.624-3.734,2.43-5.855,2.43c-2.121,0-4.242-0.806-5.855-2.43c-3.237-3.237-3.237-8.473,0-11.709
		l11.809-11.82l-11.809-11.82c-3.237-3.237-3.237-8.473,0-11.709c3.237-3.237,8.473-3.237,11.709,0l11.82,11.809l11.82-11.809
		C235.432,228.958,240.668,228.958,243.904,232.195z"/>
	<path style="fill:#535757;" d="M173.207,90.801c3.237,3.237,3.237,8.473,0,11.709l-11.809,11.82l11.809,11.82
		c3.237,3.237,3.237,8.473,0,11.709c-1.613,1.624-3.734,2.43-5.855,2.43c-2.121,0-4.242-0.806-5.855-2.43l-11.82-11.809
		l-11.82,11.809c-1.613,1.624-3.734,2.43-5.855,2.43c-2.121,0-4.242-0.806-5.855-2.43c-3.237-3.237-3.237-8.473,0-11.709
		l11.809-11.82l-11.809-11.82c-3.237-3.237-3.237-8.473,0-11.709c3.237-3.237,8.473-3.237,11.709,0l11.82,11.809l11.82-11.809
		C164.735,87.565,169.971,87.565,173.207,90.801z"/>
	<path style="fill:#535757;" d="M173.207,232.195c3.237,3.237,3.237,8.473,0,11.709l-11.809,11.82l11.809,11.82
		c3.237,3.237,3.237,8.473,0,11.709c-1.613,1.624-3.734,2.43-5.855,2.43c-2.121,0-4.242-0.806-5.855-2.43l-11.82-11.809
		l-11.82,11.809c-1.613,1.624-3.734,2.43-5.855,2.43c-2.121,0-4.242-0.806-5.855-2.43c-3.237-3.237-3.237-8.473,0-11.709
		l11.809-11.82l-11.809-11.82c-3.237-3.237-3.237-8.473,0-11.709c3.237-3.237,8.473-3.237,11.709,0l11.82,11.809l11.82-11.809
		C164.735,228.958,169.971,228.958,173.207,232.195z"/>
	<path style="fill:#535757;" d="M102.51,90.801c3.237,3.237,3.237,8.473,0,11.709l-11.809,11.82l11.809,11.82
		c3.237,3.237,3.237,8.473,0,11.709c-1.613,1.624-3.734,2.43-5.855,2.43c-2.121,0-4.242-0.806-5.855-2.43l-11.82-11.809
		l-11.82,11.809c-1.613,1.624-3.734,2.43-5.855,2.43s-4.242-0.806-5.855-2.43c-3.237-3.237-3.237-8.473,0-11.709l11.809-11.82
		l-11.809-11.82c-3.237-3.237-3.237-8.473,0-11.709c3.237-3.237,8.473-3.237,11.709,0l11.82,11.809l11.82-11.809
		C94.038,87.565,99.274,87.565,102.51,90.801z"/>
	<path style="fill:#535757;" d="M102.51,232.195c3.237,3.237,3.237,8.473,0,11.709l-11.809,11.82l11.809,11.82
		c3.237,3.237,3.237,8.473,0,11.709c-1.613,1.624-3.734,2.43-5.855,2.43c-2.121,0-4.242-0.806-5.855-2.43l-11.82-11.809
		l-11.82,11.809c-1.613,1.624-3.734,2.43-5.855,2.43s-4.242-0.806-5.855-2.43c-3.237-3.237-3.237-8.473,0-11.709l11.809-11.82
		l-11.809-11.82c-3.237-3.237-3.237-8.473,0-11.709c3.237-3.237,8.473-3.237,11.709,0l11.82,11.809l11.82-11.809
		C94.038,228.958,99.274,228.958,102.51,232.195z"/>
</g>
</svg>